<svg width="22" height="22" viewBox="0 0 22 22" fill="none" xmlns="http://www.w3.org/2000/svg">
<path d="M18.4247 14.5754C20.2902 16.441 21.3666 18.8824 21.4884 21.5H20.7686C20.5075 16.3376 16.2262 12.2188 11 12.2188C5.77382 12.2188 1.4925 16.3376 1.23137 21.5H0.511603C0.633357 18.8824 1.70983 16.441 3.57539 14.5754C4.72005 13.4307 6.08104 12.5846 7.56498 12.0726L8.50078 11.7497L7.68549 11.1881C6.14819 10.1294 5.14062 8.35933 5.14062 6.35938C5.14062 3.12897 7.76959 0.5 11 0.5C14.2304 0.5 16.8594 3.12897 16.8594 6.35938C16.8594 8.35933 15.8518 10.1294 14.3145 11.1881L13.4993 11.7497L14.4351 12.0726C15.919 12.5846 17.28 13.4307 18.4247 14.5754ZM5.85938 6.35938C5.85938 9.1944 8.16503 11.5 11 11.5C13.835 11.5 16.1406 9.1944 16.1406 6.35938C16.1406 3.52435 13.835 1.21875 11 1.21875C8.16503 1.21875 5.85938 3.52435 5.85938 6.35938Z" fill="white" stroke="white"/>
</svg>
