<svg width="40" height="40" viewBox="0 0 40 40" fill="none" xmlns="http://www.w3.org/2000/svg">
<path d="M16.1748 22.0664C16.0492 22.0664 13.4144 22.0672 12.1992 22.066C11.5736 22.0656 11.3504 21.8408 11.3504 21.2112C11.3496 19.594 11.3492 17.9768 11.3504 16.3596C11.3508 15.738 11.5868 15.5008 12.2044 15.5004C13.4196 15.4996 16.04 15.5 16.1748 15.5C16.1748 15.3892 16.1744 13.0544 16.1748 11.9792C16.1756 10.3896 16.4592 8.868 17.2668 7.4748C18.0936 6.0488 19.2968 5.072 20.8388 4.5072C21.8264 4.1452 22.8516 4.0008 23.8996 4C25.2108 3.9992 26.522 4.0004 27.8336 4.0028C28.3972 4.0036 28.6472 4.2528 28.6484 4.8204C28.6508 6.3416 28.6508 7.8628 28.6484 9.3836C28.6476 9.9572 28.408 10.1876 27.8316 10.194C26.7568 10.2056 25.6812 10.1984 24.6076 10.2416C23.5232 10.2416 22.9528 10.7712 22.9528 11.8936C22.9268 13.0808 22.942 14.2692 22.942 15.4996C23.0436 15.4996 26.1296 15.4992 27.572 15.4996C28.2272 15.4996 28.4512 15.7248 28.4512 16.3836C28.4512 17.992 28.4508 19.6008 28.4496 21.2092C28.4492 21.8584 28.2388 22.0656 27.5796 22.066C26.1372 22.0668 23.0632 22.0664 22.9288 22.0664V35.0844C22.9288 35.7784 22.7104 35.9996 22.0256 35.9996C20.356 35.9996 18.686 36 17.0164 35.9996C16.4112 35.9996 16.1752 35.7644 16.1752 35.1592C16.1748 30.9196 16.1748 22.2152 16.1748 22.0664Z" fill="#3D6AD6"/>
</svg>
