<svg width="40" height="40" viewBox="0 0 40 40" fill="none" xmlns="http://www.w3.org/2000/svg">
<g clip-path="url(#clip0_1_6)">
<path d="M20.3937 40C20.2612 40 20.1288 40 19.9954 39.9994C16.86 40.007 13.963 39.9274 11.1456 39.7559C8.56262 39.5987 6.20483 38.706 4.32678 37.1747C2.51465 35.697 1.27716 33.699 0.648804 31.2369C0.101929 29.0933 0.072937 26.9891 0.045166 24.9539C0.0250244 23.4936 0.00427246 21.7633 0 20.0037C0.00427246 18.2367 0.0250244 16.5063 0.045166 15.0461C0.072937 13.0112 0.101929 10.907 0.648804 8.76312C1.27716 6.30096 2.51465 4.30297 4.32678 2.82531C6.20483 1.29394 8.56262 0.401301 11.1459 0.244135C13.9633 0.0729316 16.861 -0.00702445 20.0031 0.000604946C23.1393 -0.00610892 26.0355 0.0729316 28.8528 0.244135C31.4359 0.401301 33.7936 1.29394 35.6717 2.82531C37.4841 4.30297 38.7213 6.30096 39.3497 8.76312C39.8965 10.9067 39.9255 13.0112 39.9533 15.0461C39.9734 16.5063 39.9945 18.2367 39.9985 19.9963V20.0037C39.9945 21.7633 39.9734 23.4936 39.9533 24.9539C39.9255 26.9888 39.8969 29.093 39.3497 31.2369C38.7213 33.699 37.4841 35.697 35.6717 37.1747C33.7936 38.706 31.4359 39.5987 28.8528 39.7559C26.1548 39.92 23.3832 40 20.3937 40V40ZM19.9954 36.8744C23.0798 36.8817 25.9119 36.8039 28.663 36.6367C30.6161 36.5179 32.3096 35.8841 33.6969 34.7528C34.9792 33.707 35.8624 32.2641 36.3217 30.4642C36.777 28.6798 36.8033 26.7639 36.8286 24.9112C36.8484 23.4607 36.8692 21.7425 36.8735 20C36.8692 18.2571 36.8484 16.5393 36.8286 15.0888C36.8033 13.2361 36.777 11.3202 36.3217 9.53552C35.8624 7.73559 34.9792 6.29272 33.6969 5.24688C32.3096 4.1159 30.6161 3.48205 28.663 3.36334C25.9119 3.1958 23.0798 3.11859 20.0027 3.1253C16.9189 3.11798 14.0866 3.1958 11.3354 3.36334C9.38232 3.48205 7.6889 4.1159 6.30157 5.24688C5.01923 6.29272 4.13605 7.73559 3.67676 9.53552C3.22144 11.3202 3.19519 13.2358 3.16986 15.0888C3.15002 16.5405 3.12927 18.2596 3.125 20.0037C3.12927 21.7401 3.15002 23.4595 3.16986 24.9112C3.19519 26.7639 3.22144 28.6798 3.67676 30.4642C4.13605 32.2641 5.01923 33.707 6.30157 34.7528C7.6889 35.8838 9.38232 36.5176 11.3354 36.6363C14.0866 36.8039 16.9196 36.882 19.9954 36.8744V36.8744ZM19.921 29.7656C14.5364 29.7656 10.1553 25.3848 10.1553 20C10.1553 14.6152 14.5364 10.2344 19.921 10.2344C25.3058 10.2344 29.6866 14.6152 29.6866 20C29.6866 25.3848 25.3058 29.7656 19.921 29.7656V29.7656ZM19.921 13.3594C16.2595 13.3594 13.2803 16.3385 13.2803 20C13.2803 23.6615 16.2595 26.6406 19.921 26.6406C23.5828 26.6406 26.5616 23.6615 26.5616 20C26.5616 16.3385 23.5828 13.3594 19.921 13.3594V13.3594ZM30.7803 7.10937C29.4861 7.10937 28.4366 8.15856 28.4366 9.45312C28.4366 10.7477 29.4861 11.7969 30.7803 11.7969C32.0749 11.7969 33.1241 10.7477 33.1241 9.45312C33.1241 8.15856 32.0749 7.10937 30.7803 7.10937Z" fill="white"/>
</g>
<defs>
<clipPath id="clip0_1_6">
<rect width="40" height="40" fill="white"/>
</clipPath>
</defs>
</svg>
