<svg width="24" height="24" viewBox="0 0 24 24" fill="none" xmlns="http://www.w3.org/2000/svg">
<g clip-path="url(#clip0_1_2)">
<path d="M20.1318 15.8682C22.1862 17.9228 23.367 20.6152 23.4894 23.5H22.6134C22.3515 17.8722 17.6915 13.375 12 13.375C6.30849 13.375 1.64854 17.8722 1.38661 23.5H0.510591C0.633043 20.6152 1.81381 17.9228 3.86828 15.8682C5.12187 14.6147 6.61249 13.688 8.23788 13.1271L9.17368 12.8042L8.35839 12.2427C6.66959 11.0796 5.5625 9.13491 5.5625 6.9375C5.5625 3.38831 8.45081 0.5 12 0.5C15.5492 0.5 18.4375 3.38831 18.4375 6.9375C18.4375 9.13491 17.3304 11.0796 15.6417 12.2427L14.8264 12.8042L15.7622 13.1271C17.3876 13.688 18.8782 14.6147 20.1318 15.8682ZM6.4375 6.9375C6.4375 10.0051 8.93241 12.5 12 12.5C15.0676 12.5 17.5625 10.0051 17.5625 6.9375C17.5625 3.86985 15.0676 1.375 12 1.375C8.93241 1.375 6.4375 3.86985 6.4375 6.9375Z" fill="white" stroke="white"/>
</g>
<defs>
<clipPath id="clip0_1_2">
<rect width="24" height="24" fill="white"/>
</clipPath>
</defs>
</svg>
