<svg width="40" height="40" viewBox="0 0 40 40" fill="none" xmlns="http://www.w3.org/2000/svg">
<path d="M36 10.078C34.81 10.6 33.542 10.946 32.22 11.114C33.58 10.302 34.618 9.026 35.106 7.488C33.838 8.244 32.438 8.778 30.946 9.076C29.742 7.794 28.026 7 26.154 7C22.522 7 19.598 9.948 19.598 13.562C19.598 14.082 19.642 14.582 19.75 15.058C14.296 14.792 9.47 12.178 6.228 8.196C3.9096 12.3732 6.5 15.798 8.244 16.964C7.19 16.944 6.156 16.638 5.28 16.156C5.28 19.4124 7.554 22.064 10.536 22.674C9.884 22.8904 8.4596 23.008 7.574 22.778C8.424 25.376 10.836 27.286 13.704 27.348C11.472 29.094 8.1828 30.5172 4 30.056C6.906 31.93 10.35 33 14.064 33C26.136 33 32.736 23 32.736 14.332C32.736 14.042 32.726 13.762 32.712 13.484C34.014 12.56 35.108 11.406 36 10.078V10.078Z" fill="white"/>
</svg>
