<svg width="40" height="40" viewBox="0 0 40 40" fill="none" xmlns="http://www.w3.org/2000/svg">
<g clip-path="url(#clip0_3_12)">
<path d="M26.1569 13.3588L17.3199 8.52363C16.8118 8.24561 16.2112 8.25599 15.7131 8.55109C15.2148 8.8465 14.9175 9.36835 14.9175 9.94758V19.535C14.9175 20.1115 15.213 20.6324 15.7079 20.9281C15.9664 21.0825 16.253 21.16 16.5402 21.16C16.8032 21.16 17.0669 21.095 17.3095 20.9644L26.1468 16.2125C26.6714 15.9302 26.9988 15.3849 27.0013 14.7889C27.0034 14.1929 26.6799 13.6451 26.1569 13.3588V13.3588ZM17.2616 18.3289V11.1634L23.8662 14.7773L17.2616 18.3289Z" fill="white"/>
<path d="M39.7057 7.15064L39.7038 7.13233C39.6699 6.81037 39.3327 3.94661 37.9405 2.49001C36.3313 0.776761 34.507 0.568632 33.6296 0.46884C33.557 0.4606 33.4905 0.452971 33.431 0.445036L33.3611 0.437712C28.073 0.053192 20.0869 0.000701902 20.0069 0.000396727L19.9999 9.15527e-05L19.9929 0.000396727C19.9129 0.000701902 11.9268 0.053192 6.59116 0.437712L6.52067 0.445036C6.4639 0.452666 6.40134 0.459684 6.33329 0.467619C5.46598 0.567716 3.66118 0.776151 2.04742 2.55135C0.721433 3.99239 0.338133 6.7948 0.298766 7.10974L0.294188 7.15064C0.282286 7.28461 0 10.474 0 13.6759V16.669C0 19.8709 0.282286 23.0603 0.294188 23.1946L0.296325 23.2147C0.330199 23.5315 0.667112 26.3428 2.05291 27.8C3.56597 29.4559 5.4791 29.675 6.50815 29.7928C6.67081 29.8114 6.81089 29.8272 6.90641 29.844L6.99887 29.8569C10.0521 30.1474 19.6252 30.2905 20.031 30.2963L20.0433 30.2966L20.0555 30.2963C20.1354 30.296 28.1212 30.2435 33.4093 29.859L33.4792 29.8517C33.546 29.8428 33.6211 29.8349 33.7035 29.8263C34.5659 29.7348 36.3609 29.5447 37.9524 27.7936C39.2784 26.3522 39.662 23.5498 39.7011 23.2352L39.7057 23.1943C39.7176 23.06 40.0001 19.8709 40.0001 16.669V13.6759C39.9998 10.474 39.7176 7.28491 39.7057 7.15064V7.15064ZM37.6558 16.669C37.6558 19.6326 37.397 22.6846 37.3726 22.9648C37.2731 23.7366 36.8688 25.5096 36.2227 26.2118C35.2266 27.3077 34.2034 27.4164 33.4563 27.4954C33.366 27.5049 33.2823 27.514 33.2067 27.5235C28.0919 27.8934 20.4073 27.9501 20.0533 27.9523C19.6563 27.9465 10.2233 27.8021 7.26316 27.5271C7.11148 27.5024 6.9476 27.4835 6.77488 27.464C5.89872 27.3636 4.69938 27.2262 3.77715 26.2118L3.75548 26.1887C3.12072 25.5273 2.72796 23.8693 2.62816 22.9739C2.60955 22.7622 2.34405 19.6741 2.34405 16.669V13.6759C2.34405 10.7157 2.60222 7.66699 2.62725 7.38104C2.74596 6.47193 3.15795 4.80629 3.77715 4.13307C4.80375 3.00393 5.88621 2.8788 6.60215 2.7961C6.67051 2.78817 6.73429 2.78084 6.79319 2.77321C11.9824 2.40151 19.7222 2.34627 19.9999 2.34414C20.2776 2.34597 28.0147 2.40151 33.1578 2.77321C33.221 2.78115 33.29 2.78908 33.3641 2.79763C34.1005 2.88155 35.2135 3.0085 36.2349 4.09798L36.2444 4.10805C36.8791 4.76936 37.2719 6.45637 37.3717 7.36975C37.3894 7.56964 37.6558 10.6644 37.6558 13.6759V16.669Z" fill="white"/>
</g>
<defs>
<clipPath id="clip0_3_12">
<rect width="40" height="40" fill="white"/>
</clipPath>
</defs>
</svg>
